<svg width="139" height="42" viewBox="0 0 139 42" fill="none" xmlns="http://www.w3.org/2000/svg">
<path fill-rule="evenodd" clip-rule="evenodd" d="M41.3014 20.6507C41.3014 24.735 40.0903 28.7276 37.8211 32.1236C35.552 35.5196 32.3268 38.1664 28.5534 39.7294C24.78 41.2924 20.6278 41.7014 16.622 40.9046C12.6161 40.1078 8.93651 38.141 6.04846 35.2529C3.16041 32.3649 1.19362 28.6853 0.396807 24.6794C-0.400005 20.6736 0.00894777 16.5214 1.57195 12.748C3.13495 8.97459 5.7818 5.74939 9.17779 3.48026C12.5738 1.21114 16.5664 0 20.6507 0C23.3626 0 26.0479 0.534143 28.5534 1.57194C31.0588 2.60973 33.3354 4.13085 35.2529 6.04845C37.1705 7.96604 38.6917 10.2426 39.7295 12.748C40.7673 15.2535 41.3014 17.9388 41.3014 20.6507ZM10.544 23.0906C11.0353 24.8668 12.3674 25.755 14.5405 25.7552C15.9387 25.7552 16.997 25.2827 17.7152 24.3378L20.663 26.0384C19.2643 28.0605 17.2047 29.0714 14.4842 29.0712C12.141 29.0712 10.2609 28.3626 8.844 26.9455C7.48329 25.4981 6.72339 23.5877 6.71813 21.6012C6.71287 19.6146 7.46266 17.7003 8.81568 16.2457C10.2137 14.8197 12.0087 14.1067 14.2007 14.1067C15.162 14.0792 16.1182 14.257 17.0053 14.6285C17.8925 14.9999 18.6901 15.5564 19.345 16.2607C20.6973 17.6999 21.4258 19.6153 21.3716 21.5894C21.3685 22.0933 21.321 22.5959 21.2297 23.0915L10.544 23.0906ZM10.4865 20.256H17.7152C17.5731 19.4007 17.1123 18.6309 16.4255 18.1017C15.7797 17.6317 14.9991 17.3832 14.2004 17.3935C13.326 17.3592 12.4661 17.6242 11.7626 18.1445C11.101 18.6754 10.6489 19.4235 10.4865 20.256ZM27.671 28.5251C28.5884 28.8962 29.5703 29.0818 30.5599 29.0709L30.5611 29.0706C31.8858 29.085 33.1893 28.7372 34.3308 28.0647C35.4342 27.425 36.3448 26.4997 36.9668 25.3862L33.7924 23.572C33.5145 24.1521 33.0642 24.6322 32.503 24.9467C31.902 25.2837 31.2221 25.4548 30.5331 25.4425C30.0289 25.4579 29.5269 25.369 29.0587 25.1813C28.5904 24.9936 28.166 24.7111 27.8121 24.3517C27.1192 23.5926 26.735 22.6019 26.735 21.5741C26.735 20.5463 27.1192 19.5556 27.8121 18.7965C28.1661 18.437 28.5905 18.1546 29.0587 17.9668C29.5269 17.779 30.0289 17.69 30.5331 17.7053C31.2145 17.6956 31.8857 17.872 32.4744 18.2153C33.0343 18.5379 33.4838 19.0219 33.7641 19.6041L36.9089 17.7619C36.3217 16.6454 35.4265 15.7207 34.3295 15.0976C33.1853 14.4334 31.8829 14.0906 30.5599 14.1053C29.5703 14.0944 28.5884 14.2799 27.671 14.6511C26.7536 15.0222 25.919 15.5717 25.2153 16.2676C24.5117 16.9635 23.9531 17.7921 23.5719 18.7054C23.1907 19.6186 22.9944 20.5984 22.9944 21.5881C22.9944 22.5777 23.1907 23.5575 23.5719 24.4708C23.9531 25.384 24.5117 26.2126 25.2153 26.9085C25.919 27.6045 26.7536 28.1539 27.671 28.5251Z" fill="#F7CA11"/>
<path d="M50.7342 26.9029C49.6851 27.9429 48.3516 28.6492 46.9017 28.9327C45.4519 29.2162 43.9506 29.0642 42.587 28.4959C41.2234 27.9276 40.0585 26.9684 39.2391 25.7392C38.4197 24.51 37.9824 23.0658 37.9824 21.5885C37.9824 20.1112 38.4197 18.667 39.2391 17.4378C40.0585 16.2085 41.2234 15.2494 42.587 14.6811C43.9506 14.1128 45.4519 13.9608 46.9017 14.2443C48.3516 14.5278 49.6851 15.2341 50.7342 16.2741C52.1325 17.6895 52.9166 19.5989 52.9166 21.5885C52.9166 23.5781 52.1325 25.4875 50.7342 26.9029ZM42.6704 24.3943C43.0255 24.757 43.4518 25.0424 43.9225 25.2326C44.3932 25.4228 44.8981 25.5137 45.4055 25.4996C45.915 25.5128 46.4218 25.4216 46.8947 25.2315C47.3676 25.0414 47.7965 24.7565 48.1551 24.3943C48.8655 23.6326 49.2605 22.6299 49.2605 21.5883C49.2605 20.5468 48.8655 19.5441 48.1551 18.7824C47.7965 18.4202 47.3676 18.1353 46.8947 17.9452C46.4218 17.7551 45.915 17.6639 45.4055 17.6771C44.8981 17.663 44.3932 17.7539 43.9225 17.9441C43.4518 18.1343 43.0255 18.4197 42.6704 18.7824C41.9685 19.5483 41.5792 20.5495 41.5792 21.5883C41.5792 22.6272 41.9685 23.6284 42.6704 24.3943Z" fill="#271C47"/>
<path d="M63.377 14.1058C64.0904 14.0844 64.8004 14.2119 65.4617 14.4803C66.123 14.7487 66.7211 15.152 67.2177 15.6645C68.2282 16.7041 68.7335 18.1401 68.7337 19.9725V28.6738H65.0776V20.4268C65.0776 19.4829 64.8224 18.7599 64.3121 18.2578C64.0396 18.0023 63.7186 17.8042 63.3681 17.6752C63.0176 17.5462 62.6447 17.4889 62.2717 17.5067C61.8534 17.4874 61.4356 17.5556 61.0452 17.7069C60.6547 17.8582 60.3001 18.0894 60.0041 18.3855C59.4373 18.9714 59.1539 19.85 59.1539 21.0215V28.6735H55.4976V14.502H59.1539V16.089C60.0416 14.7665 61.4493 14.1051 63.377 14.1049" fill="#271C47"/>
<path d="M80.9252 14.5027H84.95L79.5647 28.6742H75.3983L70.0127 14.5027H74.0375L77.4719 24.4207L80.9252 14.5027Z" fill="#271C47"/>
<path d="M89.2232 23.0911C89.714 24.8673 91.0461 25.7556 93.2194 25.7558C94.618 25.7558 95.6763 25.2833 96.3943 24.3383L99.3422 26.0389C97.9435 28.061 95.8839 29.0719 93.1633 29.0717C90.8198 29.0717 88.9396 28.3631 87.5229 26.946C86.1622 25.4986 85.4023 23.5883 85.397 21.6017C85.3917 19.6151 86.1415 17.7008 87.4945 16.2462C88.8924 14.8203 90.6875 14.1073 92.8799 14.1073C93.8411 14.0797 94.7972 14.2576 95.6842 14.629C96.5712 15.0005 97.3688 15.557 98.0236 16.2613C99.3762 17.7003 100.105 19.6158 100.05 21.5899C100.047 22.0938 100 22.5964 99.9088 23.092L89.2232 23.0911ZM89.1668 20.2566H96.3931C96.2511 19.4012 95.7903 18.6315 95.1035 18.1023C94.4577 17.6323 93.6773 17.3838 92.8787 17.394C92.0043 17.3597 91.1444 17.6247 90.4409 18.1451C89.7794 18.6759 89.3276 19.424 89.1656 20.2566" fill="#271C47"/>
<path d="M106.261 16.9399C106.562 16.0802 107.16 15.3564 107.948 14.8992C108.745 14.4423 109.65 14.2074 110.569 14.2189V18.3004C109.523 18.1528 108.458 18.3949 107.579 18.9806C106.7 19.5665 106.261 20.5396 106.261 21.9001V28.6742H102.605V14.5027H106.261V16.9399Z" fill="#271C47"/>
<path d="M115.615 18.5274C115.615 18.9056 115.865 19.2126 116.366 19.4484C116.953 19.715 117.566 19.9238 118.194 20.072C118.925 20.2559 119.644 20.4831 120.348 20.7522C121.073 21.0318 121.706 21.5078 122.176 22.1268C122.693 22.8212 122.958 23.6714 122.927 24.5369C122.927 25.9922 122.384 27.1118 121.298 27.8956C120.211 28.6795 118.856 29.0712 117.231 29.0706C114.32 29.0706 112.336 27.9464 111.278 25.698L114.453 23.9124C114.868 25.1407 115.794 25.7548 117.231 25.7546C118.535 25.7546 119.186 25.3483 119.186 24.5357C119.186 24.1581 118.936 23.8511 118.436 23.6148C117.847 23.3476 117.235 23.1341 116.607 22.977C115.876 22.7838 115.157 22.5473 114.453 22.2687C113.737 21.9866 113.107 21.5224 112.625 20.9221C112.11 20.265 111.844 19.4466 111.874 18.6121C111.848 17.9782 111.975 17.3473 112.244 16.7727C112.512 16.1981 112.915 15.6965 113.419 15.3103C114.524 14.4824 115.879 14.0572 117.259 14.1052C118.357 14.0919 119.441 14.3602 120.406 14.8846C121.346 15.4009 122.122 16.1722 122.645 17.1097L119.526 18.81C119.344 18.3643 119.028 17.986 118.622 17.7271C118.216 17.4682 117.739 17.3413 117.258 17.3639C116.844 17.3485 116.435 17.4571 116.083 17.6757C115.938 17.7641 115.818 17.8891 115.736 18.0383C115.654 18.1875 115.613 18.3557 115.616 18.5259" fill="#271C47"/>
<path d="M128.172 23.0906C128.662 24.8669 129.995 25.7551 132.168 25.7553C133.566 25.7553 134.625 25.2828 135.342 24.3378L138.29 26.0385C136.892 28.0605 134.832 29.0714 132.111 29.0712C129.768 29.0712 127.888 28.3627 126.471 26.9455C125.11 25.4984 124.35 23.5881 124.345 21.6016C124.339 19.615 125.088 17.7005 126.441 16.2457C127.839 14.8198 129.634 14.1068 131.826 14.1068C132.788 14.0792 133.744 14.2571 134.631 14.6285C135.518 15 136.316 15.5565 136.97 16.2608C138.323 17.6998 139.052 19.6153 138.997 21.5895C138.994 22.0933 138.947 22.596 138.855 23.0915L128.172 23.0906ZM128.115 20.2561H135.342C135.201 19.4007 134.74 18.6309 134.053 18.1018C133.407 17.6318 132.627 17.3833 131.828 17.3935C130.954 17.3593 130.094 17.6242 129.39 18.1446C128.729 18.6756 128.277 19.4237 128.115 20.2561Z" fill="#271C47"/>
<path d="M50.733 26.9036C49.6838 27.9437 48.3503 28.6499 46.9005 28.9334C45.4507 29.2169 43.9494 29.0649 42.5858 28.4966C41.2222 27.9284 40.0573 26.9692 39.2379 25.74C38.4184 24.5108 37.9812 23.0665 37.9812 21.5892C37.9812 20.1119 38.4184 18.6677 39.2379 17.4385C40.0573 16.2093 41.2222 15.2501 42.5858 14.6818C43.9494 14.1135 45.4507 13.9616 46.9005 14.245C48.3503 14.5285 49.6838 15.2348 50.733 16.2749C52.1313 17.6902 52.9154 19.5996 52.9154 21.5892C52.9154 23.5788 52.1313 25.4882 50.733 26.9036ZM42.6692 24.395C43.0243 24.7577 43.4506 25.0431 43.9213 25.2334C44.3919 25.4236 44.8968 25.5144 45.4043 25.5003C45.9138 25.5135 46.4206 25.4223 46.8935 25.2322C47.3664 25.0421 47.7953 24.7572 48.1539 24.395C48.8642 23.6333 49.2593 22.6306 49.2593 21.5891C49.2593 20.5476 48.8642 19.5448 48.1539 18.7832C47.7953 18.421 47.3664 18.1361 46.8935 17.946C46.4206 17.7559 45.9138 17.6646 45.4043 17.6778C44.8968 17.6637 44.3919 17.7546 43.9213 17.9448C43.4506 18.135 43.0243 18.4204 42.6692 18.7832C41.9673 19.5491 41.5779 20.5502 41.5779 21.5891C41.5779 22.6279 41.9673 23.6291 42.6692 24.395Z" fill="#271C47"/>
<path d="M63.3758 14.1058C64.0891 14.0844 64.7991 14.2119 65.4604 14.4803C66.1217 14.7487 66.7198 15.152 67.2165 15.6645C68.2269 16.7041 68.7322 18.1401 68.7324 19.9725V28.6738H65.0764V20.4268C65.0764 19.4829 64.8212 18.7599 64.3109 18.2578C64.0384 18.0023 63.7174 17.8042 63.3669 17.6752C63.0164 17.5462 62.6435 17.4889 62.2704 17.5067C61.8521 17.4874 61.4344 17.5556 61.044 17.7069C60.6535 17.8582 60.2989 18.0894 60.0029 18.3855C59.4361 18.9714 59.1527 19.85 59.1527 21.0215V28.6735H55.4963V14.502H59.1527V16.089C60.0404 14.7665 61.4481 14.1051 63.3758 14.1049" fill="#271C47"/>
<path d="M80.924 14.5022H84.9488L79.5635 28.6737H75.3971L70.0115 14.5022H74.0363L77.4706 24.4202L80.924 14.5022Z" fill="#271C47"/>
<path d="M89.222 23.0911C89.7128 24.8673 91.0449 25.7556 93.2182 25.7558C94.6168 25.7558 95.6751 25.2833 96.3931 24.3383L99.3409 26.0389C97.9423 28.061 95.8827 29.0719 93.1621 29.0717C90.8185 29.0717 88.9384 28.3631 87.5217 26.946C86.1609 25.4986 85.401 23.5883 85.3958 21.6017C85.3905 19.6151 86.1403 17.7008 87.4933 16.2462C88.8912 14.8203 90.6863 14.1073 92.8786 14.1073C93.8399 14.0797 94.796 14.2576 95.683 14.629C96.57 15.0005 97.3676 15.557 98.0223 16.2613C99.3749 17.7003 100.104 19.6158 100.049 21.5899C100.046 22.0938 99.9988 22.5964 99.9076 23.092L89.222 23.0911ZM89.1656 20.2566H96.3919C96.2499 19.4012 95.7891 18.6315 95.1022 18.1023C94.4565 17.6323 93.676 17.3838 92.8774 17.394C92.0031 17.3597 91.1431 17.6247 90.4396 18.1451C89.7782 18.6759 89.3263 19.424 89.1644 20.2566" fill="#271C47"/>
<path d="M106.261 16.9399C106.562 16.0802 107.16 15.3564 107.948 14.8992C108.745 14.4423 109.65 14.2074 110.569 14.2189V18.3004C109.523 18.1528 108.458 18.3949 107.579 18.9806C106.7 19.5665 106.261 20.5396 106.261 21.9001V28.6742H102.605V14.5027H106.261V16.9399Z" fill="#271C47"/>
<path d="M115.613 18.5276C115.613 18.9058 115.864 19.2128 116.364 19.4486C116.952 19.7152 117.564 19.9241 118.193 20.0722C118.923 20.2562 119.643 20.4833 120.347 20.7524C121.072 21.032 121.705 21.508 122.175 22.1271C122.692 22.8215 122.957 23.6717 122.926 24.5372C122.926 25.9924 122.383 27.112 121.296 27.8959C120.21 28.6798 118.854 29.0714 117.229 29.0708C114.319 29.0708 112.335 27.9466 111.277 25.6982L114.452 23.9127C114.867 25.141 115.793 25.755 117.23 25.7548C118.533 25.7548 119.185 25.3486 119.185 24.536C119.185 24.1584 118.935 23.8514 118.434 23.615C117.845 23.3478 117.233 23.1343 116.606 22.9772C115.875 22.784 115.155 22.5475 114.452 22.269C113.736 21.9868 113.106 21.5227 112.624 20.9224C112.108 20.2652 111.842 19.4469 111.873 18.6123C111.847 17.9784 111.974 17.3476 112.242 16.773C112.511 16.1983 112.914 15.6968 113.418 15.3105C114.523 14.4827 115.878 14.0575 117.258 14.1055C118.356 14.0921 119.439 14.3604 120.404 14.8848C121.345 15.4012 122.121 16.1724 122.643 17.1099L119.525 18.8102C119.342 18.3645 119.027 17.9863 118.62 17.7274C118.214 17.4685 117.738 17.3416 117.257 17.3642C116.843 17.3487 116.434 17.4573 116.082 17.676C115.937 17.7643 115.817 17.8894 115.735 18.0386C115.653 18.1878 115.611 18.3559 115.615 18.5261" fill="#271C47"/>
<path d="M128.17 23.0901C128.661 24.8664 129.993 25.7546 132.167 25.7548C133.565 25.7548 134.623 25.2823 135.341 24.3373L138.289 26.038C136.891 28.06 134.831 29.0709 132.11 29.0707C129.767 29.0707 127.887 28.3622 126.47 26.945C125.109 25.4979 124.349 23.5877 124.343 21.6011C124.338 19.6145 125.087 17.7 126.44 16.2452C127.838 14.8193 129.633 14.1063 131.825 14.1063C132.787 14.0787 133.743 14.2566 134.63 14.628C135.517 14.9995 136.314 15.556 136.969 16.2603C138.322 17.6994 139.05 19.6148 138.996 21.589C138.993 22.0929 138.945 22.5955 138.854 23.091L128.17 23.0901ZM128.114 20.2556H135.341C135.199 19.4002 134.739 18.6304 134.052 18.1013C133.406 17.6313 132.625 17.3829 131.827 17.393C130.952 17.3588 130.092 17.6237 129.389 18.1441C128.728 18.6751 128.276 19.4232 128.114 20.2556Z" fill="#271C47"/>
</svg>
